# AST/ASF file generated using VICON BodyLanguage
# -----------------------------------------------
:version 1.10
:name VICON
:units
  mass 1.0
  length 0.45
  angle deg
:documentation
   .ast/.asf automatically generated from VICON data using
   VICON BodyBuilder and BodyLanguage model FoxedUp or BRILLIANT.MOD
:root
   order TX TY TZ RX RY RZ
   axis XYZ
   position 0 0 0  
   orientation 0 0 0 
:bonedata
  begin
     id 1 
     name lhipjoint
     direction 0.570549 -0.739093 0.358072 
     length 2.41801 
     axis 0 0 0  XYZ
  end
  begin
     id 2 
     name lfemur
     direction 0.34202 -0.939693 0  
     length 7.44434  
     axis 0 0 20  XYZ
    dof rx ry rz
    limits (-160.0 20.0)
           (-70.0 70.0)
           (-60.0 70.0)
  end
  begin
     id 3 
     name ltibia
     direction 0.34202 -0.939693 0   
     length 7.60047   
     axis 0 0 20   XYZ
    dof rx
    limits (-10.0 170.0)
  end
  begin
     id 4 
     name lfoot
     direction 0.0909041 -0.249757 0.964032   
     length 2.03437   
     axis -90 7.62852e-016 20   XYZ
    dof rx rz
    limits (-45.0 90.0)
           (-70.0 20.0)
  end
  begin
     id 5 
     name ltoes
     direction 1.53547e-011 -4.2174e-011 1   
     length 1.02054   
     axis -90 7.62852e-016 20   XYZ
    dof rx
    limits (-90.0 20.0)
  end
  begin
     id 6 
     name rhipjoint
     direction -0.558096 -0.746754 0.361784   
     length 2.3932  
     axis 0 0 0  XYZ 
  end
  begin
     id 7 
     name rfemur
     direction -0.34202 -0.939693 0   
     length 7.3886   
     axis 0 0 -20   XYZ
    dof rx ry rz
    limits (-160.0 20.0)
           (-70.0 70.0)
           (-70.0 60.0)
  end
  begin
     id 8 
     name rtibia
     direction -0.34202 -0.939693 0   
     length 7.4839   
     axis 0 0 -20   XYZ
    dof rx
    limits (-10.0 170.0)
 end
 begin
     id 9 
     name rfoot
     direction -0.114619 -0.314914 0.942174   
     length 2.25127  
     axis -90 -7.62852e-016 -20   XYZ
    dof rx rz
    limits (-45.0 90.0)
           (-20.0 70.0)
  end
  begin
     id 10 
     name rtoes
     direction -1.53518e-011 -4.21881e-011 1   
     length 1.11821   
     axis -90 -7.62852e-016 -20   XYZ
    dof rx
    limits (-90.0 20.0)
  end
  begin
     id 11 
     name lowerback
     direction -0.00902269 0.996426 -0.0839821   
     length 2.25052   
     axis 0 0 0   XYZ
    dof rx ry rz
    limits (-20.0 45.0)
           (-30.0 30.0)
           (-30.0 30.0)
  end
  begin
     id 12 
     name upperback
     direction 0.0370973 0.999169 -0.0168941   
     length 2.24876   
     axis 0 0 0   XYZ
    dof rx ry rz
    limits (-20.0 45.0)
           (-30.0 30.0)
           (-30.0 30.0)
  end
  begin
     id 13 
     name thorax
     direction 0.0402726 0.998931 0.0227027   
     length 2.26408   
     axis 0 0 0   XYZ
    dof rx ry rz
    limits (-20.0 45.0)
           (-30.0 30.0)
           (-30.0 30.0)
  end
  begin
     id 14 
     name lowerneck
     direction -0.0733697 0.98508 0.155675   
     length 1.58204   
     axis 0 0 0   XYZ
    dof rx ry rz
    limits (-20.0 45.0)
           (-30.0 30.0)
           (-30.0 30.0)
  end
  begin
     id 15 
     name upperneck
     direction 0.0426554 0.993501 -0.105526   
     length 1.61222   
     axis 0 0 0   XYZ
    dof rx ry rz
    limits (-20.0 45.0)
           (-30.0 30.0)
           (-30.0 30.0)
  end
  begin
     id 16
     name head
     direction 0.020792 0.998384 -0.0528868  
     length 1.61527  
     axis 0 0 0   XYZ
    dof rx ry rz
    limits (-20.0 45.0)
           (-30.0 30.0)
           (-30.0 30.0)
  end
  begin
     id 17 
     name lclavicle
     direction 0.967109 0.155462 -0.201325  
     length 3.59357  
     axis 0 0 0   XYZ
    dof ry rz
    limits (-20.0 10.0)
           (0.0 20.0)
  end
  begin
     id 18 
     name lhumerus
     direction 1 -4.48968e-011 2.38195e-027   
     length 5.38154   
     axis 180 -30 -90   XYZ
    dof rx ry rz
    limits (-60.0 90.0)
           (-90.0 90.0)
           (-90.0 90.0)
  end
  begin
     id 19
     name lradius
     direction 1 -4.48961e-011 4.85371e-027   
     length 3.33312   
     axis 180 -30 -90   XYZ
    dof rx
    limits (-10.0 170.0)
  end
  begin
     id 20
     name lwrist
     direction 1 -4.48961e-011 4.76515e-027   
     length 1.66656   
     axis -3.27502e-015 90 90   XYZ
    dof ry
    limits (-180.0 0.0)
 end
  begin
     id 21 
     name lhand
     direction 1 -4.48951e-011 9.53074e-027   
     length 0.710789   
     axis -6.08098e-015 90 90   XYZ
    dof rx rz
    limits (-90.0 90.0)
           (-45.0 45.0)
  end
  begin
     id 22 
     name lfingers
     direction 1 -4.48953e-011 1.90613e-026   
     length 0.573057   
     axis -1.21619e-014 90 90   XYZ
    dof rx
    limits (0.0 90.0)
  end
  begin
     id 23
     name lthumb
     direction 0.707107 -6.34973e-011 0.707107   
     length 0.822798   
     axis -90 45 -9.86923e-015   XYZ
    dof rx rz
    limits (-45.0 45.0)
           (-45.0 45.0)
  end
  begin
     id 24 
     name rclavicle
     direction -0.9585 0.265289 -0.104398   
     length 3.42039  
     axis 0 0 0   XYZ 
    dof ry rz
    limits (-10.0 20.0)
           (-20.0 0.0)
  end
  begin
     id 25 
     name rhumerus
     direction -1 -4.48977e-011 2.21478e-027  
     length 5.16954   
     axis 180 30 90   XYZ
    dof rx ry rz
    limits (-90.0 60.0)
           (-90.0 90.0)
           (-90.0 90.0)
  end
  begin
     id 26 
     name rradius
     direction -1 -4.48967e-011 5.63677e-027   
     length 3.38287   
     axis 180 30 90   XYZ
    dof rx
    limits (-10.0 170.0)
  end
  begin
     id 27 
     name rwrist
     direction -1 -4.48967e-011 4.76501e-027   
     length 1.69144   
     axis -3.27502e-015 -90 -90   XYZ
    dof ry
    limits (-180.0 0.0)
  end
  begin
     id 28
     name rhand
     direction -1 -4.48902e-011 9.53292e-027   
     length 0.817967   
     axis -6.08098e-015 -90 -90   XYZ
    dof rx rz
    limits (-90.0 90.0)
           (-45.0 45.0)
  end
  begin
     id 29
     name rfingers
     direction -1 -4.49012e-011 1.90561e-026   
     length 0.659466   
     axis -1.21619e-014 -90 -90   XYZ
    dof rx
    limits (0.0 90.0)
  end
  begin
     id 30
     name rthumb
     direction -0.707107 -6.34944e-011 0.707107   
     length 0.946865   
     axis -90 -45 9.86923e-015   XYZ
    dof rx rz
    limits (-45.0 45.0)
           (-45.0 45.0)
  end
:hierarchy
  begin
    root lhipjoint rhipjoint lowerback
    lhipjoint lfemur
    lfemur ltibia
    ltibia lfoot
    lfoot ltoes
    rhipjoint rfemur
    rfemur rtibia
    rtibia rfoot
    rfoot rtoes
    lowerback upperback
    upperback thorax
    thorax lowerneck lclavicle rclavicle
    lowerneck upperneck
    upperneck head
    lclavicle lhumerus
    lhumerus lradius
    lradius lwrist
    lwrist lhand lthumb
    lhand lfingers
    rclavicle rhumerus
    rhumerus rradius
    rradius rwrist
    rwrist rhand rthumb
    rhand rfingers
  end

#!OML:ASF F:\twosubjects\two\wednesday\Session 1\Justin1.ASF
:FULLY-SPECIFIED
:DEGREES
1314
root 2.87481 17.8192 16.0671 -180.547 170.067 -539.499
lowerback 7.56448 0.384276 -3.88072
upperback 2.91983 0.275893 1.83795
thorax -1.24466 0.114681 4.06266
lowerneck -16.3702 -5.68088 -10.9871
upperneck 18.7176 -5.91793 4.25391
head 9.04931 -3.11115 2.49485
rclavicle -5.81445e-015 6.75868e-015
rhumerus 40.7344 18.5519 -58.1316
rradius 35.2734
rwrist 0.408982
rhand -19.2981 32.3233
rfingers 7.12502
rthumb 7.01743 2.45963
lclavicle -5.81445e-015 6.75868e-015
lhumerus 31.7738 -12.3991 58.9914
lradius 44.9886
lwrist -19.4557
lhand -9.39217 32.2569
lfingers 7.12502
lthumb 16.5689 61.5695
rfemur -24.1121 -8.79697 10.4185
rtibia 43.7021
rfoot -7.80684 -8.44296
rtoes -5.4667
lfemur -14.9069 4.0398 -17.5305
ltibia 33.4704
lfoot -15.7991 -6.12055
ltoes -4.07859
1315
root 2.87106 17.8328 16.1314 -180.475 169.771 -539.664
lowerback 7.56021 0.294776 -3.75192
upperback 2.87123 0.166059 1.84211
thorax -1.28183 0.0621404 4.00338
lowerneck -17.9931 -6.11056 -10.5946
upperneck 19.7101 -6.32367 3.71469
head 9.69183 -3.32261 2.15247
rclavicle 4.87022e-015 2.50469e-014
rhumerus 40.7746 18.4566 -58.2861
rradius 35.1468
rwrist 0.578406
rhand -19.2023 33.1236
rfingers 7.12502
rthumb 7.10983 3.26298
lclavicle 4.87022e-015 2.50469e-014
lhumerus 31.9778 -12.3853 58.9307
lradius 44.9352
lwrist -19.4651
lhand -9.66342 32.3912
lfingers 7.12502
lthumb 16.3077 61.7255
rfemur -24.3469 -8.15247 10.6465
rtibia 41.8571
rfoot -7.82869 -8.06781
rtoes -4.84251
lfemur -14.763 3.62083 -17.2943
ltibia 33.3353
lfoot -15.9073 -6.07497
ltoes -4.93134
1316
root 2.88661 17.8363 16.1918 -180.055 169.167 -539.117
lowerback 7.37754 0.128423 -4.00367
upperback 2.76053 -0.0721365 1.59345
thorax -1.27156 -0.0552578 3.90671
lowerneck -18.4655 -6.31027 -10.6696
upperneck 19.9346 -6.54945 3.80203
head 9.88118 -3.41949 2.15045
rclavicle -2.47487e-014 -6.75868e-015
rhumerus 40.7387 18.445 -58.1234
rradius 35.3465
rwrist 0.420241
rhand -18.9673 33.1232
rfingers 7.12502
rthumb 7.33668 3.27036
lclavicle -2.47487e-014 -6.75868e-015
lhumerus 32.3099 -12.4358 58.9423
lradius 44.6592
lwrist -19.5092
lhand -9.81617 32.4303
lfingers 7.12502
lthumb 16.1607 61.7766
rfemur -24.7105 -8.16133 9.91261
rtibia 39.9843
rfoot -7.90488 -6.88064
rtoes -6.0406
lfemur -14.8286 3.09217 -17.9691
ltibia 33.1469
lfoot -16.1257 -6.07618
ltoes -6.71498
1317
root 2.89877 17.8276 16.252 -179.934 168.757 -538.692
lowerback 7.24607 -0.0202781 -4.29225
upperback 2.89778 -0.284551 1.47392
thorax -1.0342 -0.170463 3.96155
lowerneck -18.1461 -6.25275 -11.239
upperneck 19.5149 -6.51358 4.55383
head 9.71896 -3.36009 2.51893
rclavicle -3.47873e-015 1.15295e-014
rhumerus 41.1526 18.613 -57.6032
rradius 35.5113
rwrist 0.0804532
rhand -19.0933 32.4496
rfingers 7.12502
rthumb 7.21509 2.59261
lclavicle -3.47873e-015 1.15295e-014
lhumerus 32.617 -12.1568 58.9569
lradius 44.516
lwrist -19.4494
lhand -9.89763 32.4215
lfingers 7.12502
lthumb 16.0822 61.7742
rfemur -24.762 -7.90993 9.29859
rtibia 38.0522
rfoot -7.96232 -5.51106
rtoes -9.66941
lfemur -14.6125 2.75951 -18.4507
ltibia 33.0211
lfoot -16.2919 -6.16929
ltoes -6.72408
1318
root 2.89443 17.8204 16.3189 -180.062 168.508 -538.668
lowerback 7.19282 -0.112345 -4.44716
upperback 3.10887 -0.41027 1.56262
thorax -0.770793 -0.245426 4.14986
lowerneck -17.3287 -5.98592 -11.8968
upperneck 18.6017 -6.22692 5.37187
head 9.27628 -3.18559 2.96726
rclavicle 3.47873e-016 -1.98785e-015
rhumerus 41.5855 18.6327 -57.2617
rradius 35.5227
rwrist 0.209886
rhand -19.4141 32.3579
rfingers 7.12502
rthumb 6.90537 2.49052
lclavicle 3.47873e-016 -1.98785e-015
lhumerus 32.72 -11.6551 59.2217
lradius 44.6207
lwrist -19.5507
lhand -9.89084 32.5435
lfingers 7.12502
lthumb 16.0888 61.8956
rfemur -24.5449 -7.09941 9.20147
rtibia 36.0848
rfoot -7.96066 -4.40883
rtoes -15.6067
lfemur -14.237 2.31061 -18.3995
ltibia 32.992
lfoot -16.3577 -6.10605
ltoes -5.92498
1319
root 2.88474 17.8129 16.3871 -180.033 168.34 -539.073
lowerback 7.25391 -0.167878 -4.13095
upperback 2.96183 -0.465617 1.68385
thorax -0.953755 -0.264109 4.1027
lowerneck -15.5264 -5.3851 -12.2036
upperneck 17.1507 -5.6339 5.95252
head 8.42627 -2.87712 3.32248
rclavicle -1.6201e-014 -1.15295e-014
rhumerus 41.5011 18.6435 -57.3537
rradius 35.5634
rwrist 0.505233
rhand -19.1258 32.8989
rfingers 7.12502
rthumb 7.18372 3.04081
lclavicle -1.6201e-014 -1.15295e-014
lhumerus 32.4136 -11.4447 59.5278
lradius 44.7617
lwrist -19.7689
lhand -9.91271 32.6791
lfingers 7.12502
lthumb 16.0677 62.0329
rfemur -24.4682 -5.99182 9.56479
rtibia 34.0461
rfoot -7.70375 -3.32572
rtoes -19.8533
lfemur -14.1876 1.98272 -17.8604
ltibia 33.0599
lfoot -16.5398 -6.06337
ltoes -6.78846
1320
root 2.87514 17.8046 16.4477 -179.834 168.151 -539.071
lowerback 7.33104 -0.211978 -4.13614
upperback 2.7632 -0.531129 1.61759
thorax -1.19618 -0.286941 4.04407
lowerneck -16.089 -5.58159 -11.6347
upperneck 17.6896 -5.82887 5.18826
head 8.68749 -3.00652 2.93553
rclavicle -4.04527e-014 2.5842e-014
rhumerus 41.3726 18.7037 -57.5794
rradius 35.6129
rwrist 0.67057
rhand -18.9712 33.2955
rfingers 7.12502
rthumb 7.33299 3.44253
lclavicle -4.04527e-014 2.5842e-014
lhumerus 32.2541 -11.358 59.5409
lradius 44.7779
lwrist -19.8666
lhand -9.89384 32.5298
lfingers 7.12502
lthumb 16.0859 61.8822
rfemur -24.4842 -4.7119 9.30562
rtibia 31.9524
rfoot -7.20495 -2.00885
rtoes -19.5419
lfemur -14.2788 1.60627 -17.7789
ltibia 33.2099
lfoot -16.8843 -5.85722
ltoes -8.57437
